<svg width="64" height="12" viewBox="0 0 64 12" fill="#222222" xmlns="http://www.w3.org/2000/svg">
<path d="M0.988579 5.27897C0.598725 5.27897 0.282686 5.59501 0.282686 5.98486C0.282686 6.37472 0.598725 6.69076 0.988579 6.69076V5.27897ZM63.4877 6.484C63.7634 6.20834 63.7634 5.76139 63.4877 5.48572L58.9954 0.993447C58.7198 0.717779 58.2728 0.717779 57.9972 0.993447C57.7215 1.26912 57.7215 1.71606 57.9972 1.99173L61.9903 5.98486L57.9972 9.978C57.7215 10.2537 57.7215 10.7006 57.9972 10.9763C58.2728 11.2519 58.7198 11.2519 58.9954 10.9763L63.4877 6.484ZM0.988579 6.69076H62.9886V5.27897H0.988579V6.69076Z"/>
</svg>
