<svg width="45" height="14" viewBox="0 0 45 14" fill="none" xmlns="http://www.w3.org/2000/svg">
<path d="M43.4225 6.15507C43.8892 6.15507 44.2675 6.53336 44.2675 7C44.2675 7.46664 43.8892 7.84493 43.4225 7.84493V6.15507ZM0.40255 7.59745C0.0725822 7.26749 0.0725822 6.73251 0.40255 6.40255L5.77964 1.02545C6.10961 0.695487 6.64459 0.695487 6.97455 1.02545C7.30452 1.35542 7.30452 1.8904 6.97455 2.22036L2.19491 7L6.97455 11.7796C7.30452 12.1096 7.30452 12.6446 6.97455 12.9745C6.64459 13.3045 6.10961 13.3045 5.77964 12.9745L0.40255 7.59745ZM43.4225 7.84493H1V6.15507H43.4225V7.84493Z" fill="#222222"/>
</svg>
