<svg xmlns="http://www.w3.org/2000/svg" xmlns:xlink="http://www.w3.org/1999/xlink"><symbol id="arrow-right-links" viewBox="0 0 75 8">
<path d="M1 3.5C0.723858 3.5 0.5 3.72386 0.5 4C0.5 4.27614 0.723858 4.5 1 4.5L1 3.5ZM74.3536 4.35356C74.5488 4.1583 74.5488 3.84172 74.3536 3.64645L71.1716 0.464472C70.9763 0.26921 70.6597 0.26921 70.4645 0.464472C70.2692 0.659734 70.2692 0.976317 70.4645 1.17158L73.2929 4.00001L70.4645 6.82843C70.2692 7.0237 70.2692 7.34028 70.4645 7.53554C70.6597 7.7308 70.9763 7.7308 71.1716 7.53554L74.3536 4.35356ZM1 4.5L74 4.50001L74 3.50001L1 3.5L1 4.5Z" fill=""/>
</symbol><symbol id="arrow-right" viewBox="0 0 64 12">
<path d="M0.988579 5.27897C0.598725 5.27897 0.282686 5.59501 0.282686 5.98486C0.282686 6.37472 0.598725 6.69076 0.988579 6.69076V5.27897ZM63.4877 6.484C63.7634 6.20834 63.7634 5.76139 63.4877 5.48572L58.9954 0.993447C58.7198 0.717779 58.2728 0.717779 57.9972 0.993447C57.7215 1.26912 57.7215 1.71606 57.9972 1.99173L61.9903 5.98486L57.9972 9.978C57.7215 10.2537 57.7215 10.7006 57.9972 10.9763C58.2728 11.2519 58.7198 11.2519 58.9954 10.9763L63.4877 6.484ZM0.988579 6.69076H62.9886V5.27897H0.988579V6.69076Z"/>
</symbol><symbol id="icon-close" viewBox="0 0 20 20"><path d="M.293 18.291a1 1 0 101.414 1.414L10 11.413l8.292 8.292a1 1 0 101.414-1.414l-8.292-8.292 8.292-8.292A1 1 0 1018.291.293L9.999 8.585 1.707.293A1 1 0 10.293 1.707L8.585 10 .293 18.291z"/></symbol><symbol id="slider-left" viewBox="0 0 45 14">
<path d="M43.4225 6.15507C43.8892 6.15507 44.2675 6.53336 44.2675 7C44.2675 7.46664 43.8892 7.84493 43.4225 7.84493V6.15507ZM0.40255 7.59745C0.0725822 7.26749 0.0725822 6.73251 0.40255 6.40255L5.77964 1.02545C6.10961 0.695487 6.64459 0.695487 6.97455 1.02545C7.30452 1.35542 7.30452 1.8904 6.97455 2.22036L2.19491 7L6.97455 11.7796C7.30452 12.1096 7.30452 12.6446 6.97455 12.9745C6.64459 13.3045 6.10961 13.3045 5.77964 12.9745L0.40255 7.59745ZM43.4225 7.84493H1V6.15507H43.4225V7.84493Z" fill="#222222"/>
</symbol><symbol id="slider-right" viewBox="0 0 46 14">
<path d="M1.82892 6.36381C1.36228 6.36381 0.98399 6.7421 0.98399 7.20874C0.98399 7.67538 1.36228 8.05367 1.82892 8.05367V6.36381ZM44.8489 7.8062C45.1789 7.47623 45.1789 6.94125 44.8489 6.61129L39.4718 1.23419C39.1419 0.904227 38.6069 0.904227 38.2769 1.23419C37.9469 1.56416 37.9469 2.09914 38.2769 2.4291L43.0566 7.20874L38.2769 11.9884C37.9469 12.3183 37.9469 12.8533 38.2769 13.1833C38.6069 13.5133 39.1419 13.5133 39.4718 13.1833L44.8489 7.8062ZM1.82892 8.05367H44.2515V6.36381H1.82892V8.05367Z" fill="#222222"/>
</symbol><symbol id="star-rect" viewBox="0 0 20 20">
<rect width="20" height="20" rx="2" fill="#B6361B"/>
<path d="M9.04927 4.59362C9.34862 3.6723 10.652 3.6723 10.9514 4.59362L11.6468 6.73382C11.7806 7.14584 12.1646 7.42481 12.5978 7.42481H14.8482C15.8169 7.42481 16.2197 8.66441 15.436 9.23382L13.6154 10.5566C13.2649 10.8112 13.1182 11.2626 13.2521 11.6746L13.9475 13.8149C14.2468 14.7362 13.1924 15.5023 12.4086 14.9329L10.5881 13.6102C10.2376 13.3555 9.76303 13.3555 9.41254 13.6102L7.59201 14.9329C6.8083 15.5023 5.75381 14.7362 6.05316 13.8149L6.74856 11.6746C6.88243 11.2626 6.73577 10.8112 6.38529 10.5566L4.5647 9.23382C3.78099 8.66441 4.18377 7.42481 5.15249 7.42481H7.40283C7.83606 7.42481 8.22002 7.14584 8.35389 6.73382L9.04927 4.59362Z" fill="white"/>
</symbol><symbol id="star" viewBox="0 0 24 22">
<path d="M12 0L14.6942 8.2918H23.4127L16.3593 13.4164L19.0534 21.7082L12 16.5836L4.94658 21.7082L7.64074 13.4164L0.587322 8.2918H9.30583L12 0Z" fill="#B6361B"/>
</symbol></svg>