<svg width="29" height="20" viewBox="0 0 29 20" fill="none" xmlns="http://www.w3.org/2000/svg">
<path fill-rule="evenodd" clip-rule="evenodd" d="M26.1608 1.21413C26.8689 0.784196 27.7915 1.00972 28.2215 1.71785C28.6514 2.42597 28.4259 3.34856 27.7177 3.77849L17.3902 10.0488L28.2747 16.6572C28.9828 17.0871 29.2083 18.0097 28.7784 18.7178C28.3485 19.426 27.4259 19.6515 26.7177 19.2216L14.4999 11.8036L2.2821 19.2216C1.57398 19.6515 0.651391 19.426 0.221456 18.7178C-0.20848 18.0097 0.0170413 17.0871 0.72517 16.6572L11.6096 10.0488L1.2821 3.77849C0.573975 3.34856 0.348455 2.42597 0.77839 1.71785C1.20833 1.00972 2.13091 0.784196 2.83904 1.21413L14.4999 8.29395L26.1608 1.21413Z" fill="black"/>
</svg>
