<svg width="301" height="60" viewBox="0 0 301 60" fill="none" xmlns="http://www.w3.org/2000/svg">
<path d="M49.0233 18.2799C48.7259 18.035 41.9038 12 29.7638 12H29.309H28.8367C16.6968 12 9.85714 18.035 9.55977 18.2974L9.01749 18.7872C9 18.8047 9 18.8222 9 18.8397L9.03499 19.5569C9.05248 19.8017 9.40233 25.5219 11.9563 32.0292C15.4023 40.7755 21.2274 46.688 28.8017 49.102L29.274 49.2595C29.2915 49.2595 29.309 49.2595 29.309 49.2595L29.7813 49.102C37.3557 46.6706 43.1808 40.7755 46.6268 32.0292C49.1808 25.5219 49.5306 19.8017 49.5306 19.5569L49.5656 18.8397C49.5656 18.8222 49.5656 18.8047 49.5481 18.7872L49.0233 18.2799ZM39.7172 40.6531L39.7872 40.5131C40.4169 36.7522 36.9883 32.1691 36.2536 31.242C36.2362 31.207 36.1837 31.207 36.1487 31.2245C36.1312 31.242 36.1137 31.2595 36.1312 31.277C36.3411 36.1574 34.312 38.2391 33.4898 38.8688C33.4548 38.8863 33.4198 38.8863 33.3848 38.8513C33.3673 38.8338 33.3673 38.7988 33.3848 38.7638C33.7697 38.1341 34.5568 36.5248 35.0641 32.9738C35.6239 29.1079 33.9796 27.0787 33.2799 26.414C33.2449 26.379 33.2099 26.379 33.1749 26.414C33.1574 26.4315 33.1574 26.4665 33.1574 26.5015C33.6297 27.5335 33.2799 28.863 33.1574 29.2128C33.1399 29.2478 33.105 29.2653 33.07 29.2653C33.07 29.2653 33.0525 29.2653 33.0525 29.2478C28.242 25.7493 29.484 19.312 29.7638 18.1224C29.7638 18.0875 29.7464 18.0525 29.7114 18.035C29.6939 18.035 29.6764 18.035 29.6589 18.0525C28.9767 18.5773 26.3178 20.8338 26.3178 23.8776C26.3178 27.3761 27.1924 27.3761 27.1924 29.6501C27.1924 31.312 26.2653 33.2362 25.758 34.1633C25.7405 34.1982 25.688 34.1983 25.6531 34.1808C25.6356 34.1633 25.6181 34.1283 25.6181 34.1108C26.6152 30.1574 22.8717 27.1837 22.0845 26.6064C22.0496 26.5889 22.0146 26.5889 21.9796 26.6239C21.9621 26.6414 21.9621 26.6589 21.9621 26.6764C23.274 32.9913 20.7726 34.4257 19.6531 36.2974C18.8134 37.6793 18.8659 39.7259 18.9184 40.5131C18.9184 40.5481 18.8834 40.5831 18.8484 40.5831C18.8309 40.5831 18.8134 40.5831 18.7959 40.5656C11.5714 32.1691 10.6793 20.2041 10.6268 19.5044C10.6268 19.4869 10.6268 19.4694 10.6443 19.4519C11.0991 19.0496 17.7464 13.4519 29.274 13.5918C40.8017 13.4344 47.449 19.0496 47.9038 19.4519C47.9213 19.4694 47.9213 19.4869 47.9213 19.5044C47.9038 20.2216 47.0117 32.2216 39.7172 40.6531Z" fill="#C52700"/>
<path d="M76.784 37.808C76.464 37.92 76.04 38.008 75.512 38.072C75 38.152 74.512 38.192 74.048 38.192C72.56 38.192 71.472 37.96 70.784 37.496C70.096 37.016 69.64 36.208 69.416 35.072C69.192 33.92 69.08 32.144 69.08 29.744C69.08 27.376 69.192 25.616 69.416 24.464C69.656 23.312 70.12 22.496 70.808 22.016C71.496 21.536 72.576 21.296 74.048 21.296C74.544 21.296 75.048 21.336 75.56 21.416C76.072 21.48 76.464 21.568 76.736 21.68V23.96C75.888 23.832 75.168 23.768 74.576 23.768C73.664 23.768 73.024 23.888 72.656 24.128C72.304 24.368 72.072 24.872 71.96 25.64C71.864 26.408 71.816 27.776 71.816 29.744C71.816 31.712 71.864 33.08 71.96 33.848C72.072 34.616 72.304 35.12 72.656 35.36C73.024 35.6 73.664 35.72 74.576 35.72C75.376 35.72 76.112 35.656 76.784 35.528V37.808ZM78.9316 38V21.488H86.8036V23.96H81.6676V28.424H86.1076V30.896H81.6676V35.528H86.8036V38H78.9316ZM96.2801 38L91.8161 27.8H91.7201V38H89.0801V21.488H91.8161L96.0881 31.184H96.1841V21.488H98.8241V38H96.2801ZM103.85 38V24.032H100.538V21.488H109.874V24.032H106.586V38H103.85ZM118.468 38L116.692 31.976H114.34V38H111.604V21.488H116.932C118.084 21.488 118.948 21.688 119.524 22.088C120.116 22.488 120.508 23.056 120.7 23.792C120.908 24.528 121.012 25.504 121.012 26.72C121.012 27.904 120.892 28.888 120.652 29.672C120.428 30.456 119.964 31.032 119.26 31.4L121.348 38H118.468ZM116.284 29.504C116.892 29.504 117.332 29.432 117.604 29.288C117.876 29.128 118.052 28.864 118.132 28.496C118.228 28.112 118.276 27.52 118.276 26.72C118.276 25.92 118.228 25.336 118.132 24.968C118.052 24.6 117.876 24.344 117.604 24.2C117.332 24.04 116.892 23.96 116.284 23.96H114.34V29.504H116.284ZM130.761 38L129.969 34.256H125.745L124.977 38H122.217L125.913 21.488H129.873L133.569 38H130.761ZM127.929 24.2H127.785L126.249 31.808H129.441L127.929 24.2ZM135.252 38V21.488H137.988V35.456H142.548V38H135.252ZM148.775 38V21.488H156.263V23.96H151.511V28.808H155.735V31.28H151.511V38H148.775ZM158.268 38V21.488H161.028V38H158.268ZM170.757 38L168.981 31.976H166.629V38H163.893V21.488H169.221C170.373 21.488 171.237 21.688 171.813 22.088C172.405 22.488 172.797 23.056 172.989 23.792C173.197 24.528 173.301 25.504 173.301 26.72C173.301 27.904 173.181 28.888 172.941 29.672C172.717 30.456 172.253 31.032 171.549 31.4L173.637 38H170.757ZM168.573 29.504C169.181 29.504 169.621 29.432 169.893 29.288C170.165 29.128 170.341 28.864 170.421 28.496C170.517 28.112 170.565 27.52 170.565 26.72C170.565 25.92 170.517 25.336 170.421 24.968C170.341 24.6 170.165 24.344 169.893 24.2C169.621 24.04 169.181 23.96 168.573 23.96H166.629V29.504H168.573ZM175.658 38V21.488H183.53V23.96H178.394V28.424H182.834V30.896H178.394V35.528H183.53V38H175.658ZM194.148 38.192C193.492 38.192 192.772 38.16 191.988 38.096C191.204 38.032 190.524 37.944 189.948 37.832V35.504C191.308 35.648 192.452 35.72 193.38 35.72C194.5 35.72 195.212 35.544 195.516 35.192C195.676 35.032 195.78 34.816 195.828 34.544C195.876 34.256 195.9 33.872 195.9 33.392C195.9 32.72 195.86 32.24 195.78 31.952C195.7 31.664 195.54 31.456 195.3 31.328C195.076 31.184 194.676 31.064 194.1 30.968L191.724 30.56C190.924 30.432 190.372 30.008 190.068 29.288C189.78 28.568 189.636 27.528 189.636 26.168C189.636 24.888 189.82 23.896 190.188 23.192C190.556 22.472 191.076 21.976 191.748 21.704C192.42 21.432 193.276 21.296 194.316 21.296C194.988 21.296 195.668 21.344 196.356 21.44C197.06 21.52 197.62 21.616 198.036 21.728V24.008C197.204 23.848 196.228 23.768 195.108 23.768C194.468 23.768 193.972 23.8 193.62 23.864C193.268 23.928 193.004 24.04 192.828 24.2C192.636 24.36 192.508 24.576 192.444 24.848C192.396 25.12 192.372 25.528 192.372 26.072C192.372 26.648 192.404 27.064 192.468 27.32C192.532 27.56 192.644 27.736 192.804 27.848C192.98 27.96 193.268 28.048 193.668 28.112L195.9 28.496C196.524 28.592 197.028 28.776 197.412 29.048C197.812 29.32 198.116 29.776 198.324 30.416C198.532 31.072 198.636 31.944 198.636 33.032C198.636 34.456 198.468 35.544 198.132 36.296C197.796 37.032 197.308 37.536 196.668 37.808C196.044 38.064 195.204 38.192 194.148 38.192ZM200.877 38V21.488H208.749V23.96H203.613V28.424H208.053V30.896H203.613V35.528H208.749V38H200.877ZM217.889 38L216.113 31.976H213.761V38H211.025V21.488H216.353C217.505 21.488 218.369 21.688 218.945 22.088C219.537 22.488 219.929 23.056 220.121 23.792C220.329 24.528 220.433 25.504 220.433 26.72C220.433 27.904 220.313 28.888 220.073 29.672C219.849 30.456 219.385 31.032 218.681 31.4L220.769 38H217.889ZM215.705 29.504C216.313 29.504 216.753 29.432 217.025 29.288C217.297 29.128 217.473 28.864 217.553 28.496C217.649 28.112 217.697 27.52 217.697 26.72C217.697 25.92 217.649 25.336 217.553 24.968C217.473 24.6 217.297 24.344 217.025 24.2C216.753 24.04 216.313 23.96 215.705 23.96H213.761V29.504H215.705ZM224.978 38L221.522 21.488H224.33L226.922 34.976H227.09L229.658 21.488H232.394L228.938 38H224.978ZM234.112 38V21.488H236.872V38H234.112ZM247.104 37.808C246.784 37.92 246.36 38.008 245.832 38.072C245.32 38.152 244.832 38.192 244.368 38.192C242.88 38.192 241.792 37.96 241.104 37.496C240.416 37.016 239.96 36.208 239.736 35.072C239.512 33.92 239.4 32.144 239.4 29.744C239.4 27.376 239.512 25.616 239.736 24.464C239.976 23.312 240.44 22.496 241.128 22.016C241.816 21.536 242.896 21.296 244.368 21.296C244.864 21.296 245.368 21.336 245.88 21.416C246.392 21.48 246.784 21.568 247.056 21.68V23.96C246.208 23.832 245.488 23.768 244.896 23.768C243.984 23.768 243.344 23.888 242.976 24.128C242.624 24.368 242.392 24.872 242.28 25.64C242.184 26.408 242.136 27.776 242.136 29.744C242.136 31.712 242.184 33.08 242.28 33.848C242.392 34.616 242.624 35.12 242.976 35.36C243.344 35.6 243.984 35.72 244.896 35.72C245.696 35.72 246.432 35.656 247.104 35.528V37.808ZM249.252 38V21.488H257.124V23.96H251.988V28.424H256.428V30.896H251.988V35.528H257.124V38H249.252ZM263.288 38.192C262.632 38.192 261.912 38.16 261.128 38.096C260.344 38.032 259.664 37.944 259.088 37.832V35.504C260.448 35.648 261.592 35.72 262.52 35.72C263.64 35.72 264.352 35.544 264.656 35.192C264.816 35.032 264.92 34.816 264.968 34.544C265.016 34.256 265.04 33.872 265.04 33.392C265.04 32.72 265 32.24 264.92 31.952C264.84 31.664 264.68 31.456 264.44 31.328C264.216 31.184 263.816 31.064 263.24 30.968L260.864 30.56C260.064 30.432 259.512 30.008 259.208 29.288C258.92 28.568 258.776 27.528 258.776 26.168C258.776 24.888 258.96 23.896 259.328 23.192C259.696 22.472 260.216 21.976 260.888 21.704C261.56 21.432 262.416 21.296 263.456 21.296C264.128 21.296 264.808 21.344 265.496 21.44C266.2 21.52 266.76 21.616 267.176 21.728V24.008C266.344 23.848 265.368 23.768 264.248 23.768C263.608 23.768 263.112 23.8 262.76 23.864C262.408 23.928 262.144 24.04 261.968 24.2C261.776 24.36 261.648 24.576 261.584 24.848C261.536 25.12 261.512 25.528 261.512 26.072C261.512 26.648 261.544 27.064 261.608 27.32C261.672 27.56 261.784 27.736 261.944 27.848C262.12 27.96 262.408 28.048 262.808 28.112L265.04 28.496C265.664 28.592 266.168 28.776 266.552 29.048C266.952 29.32 267.256 29.776 267.464 30.416C267.672 31.072 267.776 31.944 267.776 33.032C267.776 34.456 267.608 35.544 267.272 36.296C266.936 37.032 266.448 37.536 265.808 37.808C265.184 38.064 264.344 38.192 263.288 38.192ZM274.495 38V21.488H277.255V38H274.495ZM287.319 38L282.855 27.8H282.759V38H280.119V21.488H282.855L287.127 31.184H287.223V21.488H289.863V38H287.319ZM300.073 37.808C299.753 37.92 299.329 38.008 298.801 38.072C298.289 38.152 297.801 38.192 297.337 38.192C295.849 38.192 294.761 37.96 294.073 37.496C293.385 37.016 292.929 36.208 292.705 35.072C292.481 33.92 292.369 32.144 292.369 29.744C292.369 27.376 292.481 25.616 292.705 24.464C292.945 23.312 293.409 22.496 294.097 22.016C294.785 21.536 295.865 21.296 297.337 21.296C297.833 21.296 298.337 21.336 298.849 21.416C299.361 21.48 299.753 21.568 300.025 21.68V23.96C299.177 23.832 298.457 23.768 297.865 23.768C296.953 23.768 296.313 23.888 295.945 24.128C295.593 24.368 295.361 24.872 295.249 25.64C295.153 26.408 295.105 27.776 295.105 29.744C295.105 31.712 295.153 33.08 295.249 33.848C295.361 34.616 295.593 35.12 295.945 35.36C296.313 35.6 296.953 35.72 297.865 35.72C298.665 35.72 299.401 35.656 300.073 35.528V37.808Z" fill="white"/>
</svg>
