<svg width="45" height="14" viewBox="0 0 45 14" fill="none" xmlns="http://www.w3.org/2000/svg">
<path d="M43.4224 6.15507C43.889 6.15507 44.2673 6.53336 44.2673 7C44.2673 7.46664 43.889 7.84493 43.4224 7.84493V6.15507ZM0.402366 7.59745C0.0724007 7.26749 0.0724007 6.73251 0.402366 6.40255L5.77946 1.02545C6.10942 0.695486 6.6444 0.695486 6.97437 1.02545C7.30433 1.35542 7.30433 1.8904 6.97437 2.22036L2.19473 7L6.97437 11.7796C7.30433 12.1096 7.30433 12.6446 6.97437 12.9745C6.6444 13.3045 6.10942 13.3045 5.77946 12.9745L0.402366 7.59745ZM43.4224 7.84493H0.999821V6.15507H43.4224V7.84493Z" fill="#222222"/>
</svg>
