<svg width="46" height="14" viewBox="0 0 46 14" fill="none" xmlns="http://www.w3.org/2000/svg">
<path d="M1.82892 6.36381C1.36228 6.36381 0.98399 6.7421 0.98399 7.20874C0.98399 7.67538 1.36228 8.05367 1.82892 8.05367V6.36381ZM44.8489 7.8062C45.1789 7.47623 45.1789 6.94125 44.8489 6.61129L39.4718 1.23419C39.1419 0.904227 38.6069 0.904227 38.2769 1.23419C37.9469 1.56416 37.9469 2.09914 38.2769 2.4291L43.0566 7.20874L38.2769 11.9884C37.9469 12.3183 37.9469 12.8533 38.2769 13.1833C38.6069 13.5133 39.1419 13.5133 39.4718 13.1833L44.8489 7.8062ZM1.82892 8.05367H44.2515V6.36381H1.82892V8.05367Z" fill="#222222"/>
</svg>
