<svg width="20" height="20" viewBox="0 0 20 20" fill="none" xmlns="http://www.w3.org/2000/svg">
<rect width="20" height="20" rx="2" fill="#B6361B"/>
<path d="M9.04927 4.59362C9.34862 3.6723 10.652 3.6723 10.9514 4.59362L11.6468 6.73382C11.7806 7.14584 12.1646 7.42481 12.5978 7.42481H14.8482C15.8169 7.42481 16.2197 8.66441 15.436 9.23382L13.6154 10.5566C13.2649 10.8112 13.1182 11.2626 13.2521 11.6746L13.9475 13.8149C14.2468 14.7362 13.1924 15.5023 12.4086 14.9329L10.5881 13.6102C10.2376 13.3555 9.76303 13.3555 9.41254 13.6102L7.59201 14.9329C6.8083 15.5023 5.75381 14.7362 6.05316 13.8149L6.74856 11.6746C6.88243 11.2626 6.73577 10.8112 6.38529 10.5566L4.5647 9.23382C3.78099 8.66441 4.18377 7.42481 5.15249 7.42481H7.40283C7.83606 7.42481 8.22002 7.14584 8.35389 6.73382L9.04927 4.59362Z" fill="white"/>
</svg>
