<svg width="30" height="20" viewBox="0 0 30 20" fill="none" xmlns="http://www.w3.org/2000/svg">
<path fill-rule="evenodd" clip-rule="evenodd" d="M2 0.5C1.17157 0.5 0.5 1.17157 0.5 2C0.5 2.82843 1.17157 3.5 2 3.5H28C28.8284 3.5 29.5 2.82843 29.5 2C29.5 1.17157 28.8284 0.5 28 0.5H2ZM13 8.5C12.1716 8.5 11.5 9.17157 11.5 10C11.5 10.8284 12.1716 11.5 13 11.5L28 11.5C28.8284 11.5 29.5 10.8284 29.5 10C29.5 9.17157 28.8284 8.5 28 8.5L13 8.5ZM0.5 10C0.5 9.17157 1.17157 8.5 2 8.5H7C7.82843 8.5 8.5 9.17157 8.5 10C8.5 10.8284 7.82843 11.5 7 11.5H2C1.17157 11.5 0.5 10.8284 0.5 10ZM8 16.5C7.17157 16.5 6.5 17.1716 6.5 18C6.5 18.8284 7.17157 19.5 8 19.5L28 19.5C28.8284 19.5 29.5 18.8284 29.5 18C29.5 17.1716 28.8284 16.5 28 16.5L8 16.5Z" fill="#222222"/>
</svg>
