<svg width="82" height="8" viewBox="0 0 82 8" fill="none" xmlns="http://www.w3.org/2000/svg">
<path d="M0.999756 3.5C0.723614 3.5 0.499756 3.72386 0.499756 4C0.499756 4.27614 0.723613 4.5 0.999756 4.5L0.999756 3.5ZM81.2153 4.35356C81.4106 4.1583 81.4106 3.84172 81.2153 3.64645L78.0333 0.464473C77.8381 0.269211 77.5215 0.269211 77.3262 0.464473C77.131 0.659735 77.131 0.976317 77.3262 1.17158L80.1546 4.00001L77.3262 6.82843C77.131 7.0237 77.131 7.34028 77.3262 7.53554C77.5215 7.7308 77.8381 7.7308 78.0333 7.53554L81.2153 4.35356ZM0.999756 4.5L80.8618 4.50001L80.8618 3.50001L0.999756 3.5L0.999756 4.5Z" fill="white"/>
</svg>
