<svg width="379" height="76" viewBox="0 0 379 76" fill="none" xmlns="http://www.w3.org/2000/svg">
<path d="M68.141 19.0043C67.67 18.6164 56.8633 9.05664 37.633 9.05664H36.9126H36.1645C16.9342 9.05664 6.09982 18.6164 5.62876 19.032L4.76978 19.8079C4.74207 19.8356 4.74207 19.8633 4.74207 19.891L4.79748 21.0271C4.82519 21.415 5.37938 30.476 9.42494 40.7838C14.8837 54.6385 24.1109 64.0043 36.109 67.8281L36.8572 68.0775C36.8849 68.0775 36.9126 68.0775 36.9126 68.0775L37.6608 67.8281C49.6589 63.9766 58.8861 54.6385 64.3448 40.7838C68.3904 30.476 68.9446 21.415 68.9446 21.0271L69 19.891C69 19.8633 69 19.8356 68.9723 19.8079L68.141 19.0043ZM53.3997 54.4445L53.5105 54.2229C54.508 48.2654 49.077 41.0055 47.9132 39.5369C47.8855 39.4815 47.8024 39.4815 47.747 39.5092C47.7192 39.5369 47.6915 39.5646 47.7192 39.5923C48.0518 47.3232 44.8375 50.6207 43.5351 51.6182C43.4797 51.6459 43.4243 51.6459 43.3689 51.5905C43.3412 51.5628 43.3412 51.5073 43.3689 51.4519C43.9785 50.4544 45.2254 47.9051 46.029 42.2801C46.9157 36.1564 44.311 32.9421 43.2026 31.8891C43.1472 31.8337 43.0918 31.8337 43.0364 31.8891C43.0087 31.9168 43.0087 31.9723 43.0087 32.0277C43.7568 33.6625 43.2026 35.7684 43.0087 36.3226C42.9809 36.378 42.9255 36.4058 42.8701 36.4058C42.8701 36.4058 42.8424 36.4058 42.8424 36.378C35.2223 30.8362 37.1897 20.6391 37.633 18.7549C37.633 18.6995 37.6053 18.6441 37.5499 18.6164C37.5222 18.6164 37.4945 18.6164 37.4668 18.6441C36.3861 19.4754 32.1743 23.0499 32.1743 27.8713C32.1743 33.4131 33.5598 33.4131 33.5598 37.0154C33.5598 39.6477 32.0912 42.6958 31.2876 44.1644C31.2599 44.2198 31.1768 44.2198 31.1214 44.1921C31.0936 44.1644 31.0659 44.109 31.0659 44.0812C32.6454 37.8189 26.7156 33.1083 25.4687 32.1939C25.4132 32.1662 25.3578 32.1662 25.3024 32.2216C25.2747 32.2494 25.2747 32.2771 25.2747 32.3048C27.3529 42.3078 23.3904 44.58 21.6171 47.5449C20.287 49.7339 20.3701 52.9759 20.4533 54.2229C20.4533 54.2783 20.3978 54.3337 20.3424 54.3337C20.3147 54.3337 20.287 54.3337 20.2593 54.306C8.81534 41.0055 7.40216 22.0523 7.31903 20.9439C7.31903 20.9162 7.31903 20.8885 7.34674 20.8608C8.06719 20.2235 18.5967 11.3565 36.8572 11.5782C55.1176 11.3288 65.6472 20.2235 66.3676 20.8608C66.3953 20.8885 66.3953 20.9162 66.3953 20.9439C66.3676 22.08 64.9545 41.0886 53.3997 54.4445Z" fill="#B6361B"/>
<path d="M96.6815 47.6818C96.2786 47.8229 95.7447 47.9337 95.0799 48.0142C94.4352 48.115 93.8208 48.1653 93.2365 48.1653C91.3629 48.1653 89.993 47.8732 89.1267 47.289C88.2604 46.6846 87.6863 45.6672 87.4042 44.2368C87.1222 42.7863 86.9811 40.5501 86.9811 37.5282C86.9811 34.5465 87.1222 32.3304 87.4042 30.8799C87.7064 29.4294 88.2906 28.4019 89.1569 27.7976C90.0232 27.1932 91.3831 26.891 93.2365 26.891C93.8611 26.891 94.4957 26.9413 95.1403 27.0421C95.785 27.1227 96.2786 27.2335 96.6211 27.3745V30.2453C95.5533 30.0841 94.6468 30.0036 93.9014 30.0036C92.753 30.0036 91.9472 30.1547 91.4838 30.4568C91.0406 30.759 90.7485 31.3936 90.6075 32.3607C90.4866 33.3277 90.4261 35.0502 90.4261 37.5282C90.4261 40.0061 90.4866 41.7286 90.6075 42.6957C90.7485 43.6627 91.0406 44.2973 91.4838 44.5995C91.9472 44.9017 92.753 45.0528 93.9014 45.0528C94.9087 45.0528 95.8354 44.9722 96.6815 44.811V47.6818ZM99.3857 47.9236V27.1327H109.298V30.2453H102.831V35.8661H108.421V38.9787H102.831V44.811H109.298V47.9236H99.3857ZM121.23 47.9236L115.609 35.0804H115.488V47.9236H112.164V27.1327H115.609L120.988 39.3413H121.109V27.1327H124.433V47.9236H121.23ZM130.761 47.9236V30.336H126.591V27.1327H138.346V30.336H134.206V47.9236H130.761ZM149.167 47.9236L146.931 40.3385H143.969V47.9236H140.524V27.1327H147.233C148.683 27.1327 149.771 27.3846 150.496 27.8882C151.242 28.3919 151.735 29.1071 151.977 30.0338C152.239 30.9605 152.37 32.1894 152.37 33.7205C152.37 35.2113 152.219 36.4503 151.917 37.4375C151.635 38.4247 151.05 39.1499 150.164 39.6133L152.793 47.9236H149.167ZM146.417 37.226C147.182 37.226 147.736 37.1353 148.079 36.954C148.421 36.7525 148.643 36.4201 148.744 35.9568C148.865 35.4732 148.925 34.7278 148.925 33.7205C148.925 32.7132 148.865 31.9779 148.744 31.5145C148.643 31.0512 148.421 30.7288 148.079 30.5475C147.736 30.346 147.182 30.2453 146.417 30.2453H143.969V37.226H146.417ZM164.646 47.9236L163.649 43.2094H158.33L157.363 47.9236H153.888L158.542 27.1327H163.528L168.182 47.9236H164.646ZM161.08 30.5475H160.899L158.965 40.127H162.984L161.08 30.5475ZM170.301 47.9236V27.1327H173.746V44.7203H179.487V47.9236H170.301ZM187.328 47.9236V27.1327H196.757V30.2453H190.773V36.3496H196.092V39.4622H190.773V47.9236H187.328ZM199.281 47.9236V27.1327H202.756V47.9236H199.281ZM215.006 47.9236L212.77 40.3385H209.808V47.9236H206.363V27.1327H213.072C214.522 27.1327 215.61 27.3846 216.335 27.8882C217.081 28.3919 217.574 29.1071 217.816 30.0338C218.078 30.9605 218.209 32.1894 218.209 33.7205C218.209 35.2113 218.058 36.4503 217.756 37.4375C217.474 38.4247 216.889 39.1499 216.003 39.6133L218.632 47.9236H215.006ZM212.256 37.226C213.021 37.226 213.575 37.1353 213.918 36.954C214.26 36.7525 214.482 36.4201 214.583 35.9568C214.704 35.4732 214.764 34.7278 214.764 33.7205C214.764 32.7132 214.704 31.9779 214.583 31.5145C214.482 31.0512 214.26 30.7288 213.918 30.5475C213.575 30.346 213.021 30.2453 212.256 30.2453H209.808V37.226H212.256ZM221.178 47.9236V27.1327H231.09V30.2453H224.623V35.8661H230.213V38.9787H224.623V44.811H231.09V47.9236H221.178ZM244.458 48.1653C243.632 48.1653 242.726 48.125 241.739 48.0445C240.752 47.9639 239.895 47.8531 239.17 47.712V44.7808C240.883 44.9621 242.323 45.0528 243.491 45.0528C244.902 45.0528 245.798 44.8311 246.181 44.3879C246.382 44.1865 246.513 43.9145 246.574 43.572C246.634 43.2094 246.664 42.7259 246.664 42.1215C246.664 41.2753 246.614 40.671 246.513 40.3083C246.413 39.9457 246.211 39.6838 245.909 39.5226C245.627 39.3413 245.123 39.1902 244.398 39.0693L241.406 38.5556C240.399 38.3944 239.704 37.8606 239.321 36.954C238.959 36.0474 238.777 34.7379 238.777 33.0255C238.777 31.4138 239.009 30.1647 239.472 29.2783C239.936 28.3717 240.59 27.7472 241.437 27.4047C242.283 27.0622 243.361 26.891 244.67 26.891C245.516 26.891 246.372 26.9514 247.239 27.0723C248.125 27.173 248.83 27.2939 249.354 27.4349V30.3058C248.306 30.1043 247.077 30.0036 245.667 30.0036C244.861 30.0036 244.237 30.0438 243.794 30.1244C243.35 30.205 243.018 30.346 242.796 30.5475C242.555 30.749 242.393 31.0209 242.313 31.3634C242.252 31.7059 242.222 32.2196 242.222 32.9046C242.222 33.6299 242.263 34.1537 242.343 34.476C242.424 34.7782 242.565 34.9998 242.766 35.1408C242.988 35.2819 243.35 35.3927 243.854 35.4732L246.664 35.9568C247.45 36.0776 248.085 36.3093 248.568 36.6518C249.072 36.9943 249.455 37.5684 249.717 38.3743C249.979 39.2003 250.109 40.2983 250.109 41.6682C250.109 43.4612 249.898 44.8311 249.475 45.778C249.052 46.7047 248.437 47.3393 247.631 47.6818C246.846 48.0042 245.788 48.1653 244.458 48.1653ZM252.931 47.9236V27.1327H262.843V30.2453H256.376V35.8661H261.967V38.9787H256.376V44.811H262.843V47.9236H252.931ZM274.352 47.9236L272.116 40.3385H269.155V47.9236H265.71V27.1327H272.418C273.869 27.1327 274.957 27.3846 275.682 27.8882C276.427 28.3919 276.921 29.1071 277.163 30.0338C277.425 30.9605 277.556 32.1894 277.556 33.7205C277.556 35.2113 277.405 36.4503 277.102 37.4375C276.82 38.4247 276.236 39.1499 275.35 39.6133L277.979 47.9236H274.352ZM271.602 37.226C272.368 37.226 272.922 37.1353 273.265 36.954C273.607 36.7525 273.829 36.4201 273.929 35.9568C274.05 35.4732 274.111 34.7278 274.111 33.7205C274.111 32.7132 274.05 31.9779 273.929 31.5145C273.829 31.0512 273.607 30.7288 273.265 30.5475C272.922 30.346 272.368 30.2453 271.602 30.2453H269.155V37.226H271.602ZM283.278 47.9236L278.926 27.1327H282.462L285.725 44.116H285.937L289.17 27.1327H292.615L288.264 47.9236H283.278ZM294.779 47.9236V27.1327H298.254V47.9236H294.779ZM311.138 47.6818C310.735 47.8229 310.201 47.9337 309.536 48.0142C308.892 48.115 308.277 48.1653 307.693 48.1653C305.819 48.1653 304.449 47.8732 303.583 47.289C302.717 46.6846 302.143 45.6672 301.861 44.2368C301.579 42.7863 301.438 40.5501 301.438 37.5282C301.438 34.5465 301.579 32.3304 301.861 30.8799C302.163 29.4294 302.747 28.4019 303.613 27.7976C304.48 27.1932 305.84 26.891 307.693 26.891C308.318 26.891 308.952 26.9413 309.597 27.0421C310.241 27.1227 310.735 27.2335 311.078 27.3745V30.2453C310.01 30.0841 309.103 30.0036 308.358 30.0036C307.209 30.0036 306.404 30.1547 305.94 30.4568C305.497 30.759 305.205 31.3936 305.064 32.3607C304.943 33.3277 304.883 35.0502 304.883 37.5282C304.883 40.0061 304.943 41.7286 305.064 42.6957C305.205 43.6627 305.497 44.2973 305.94 44.5995C306.404 44.9017 307.209 45.0528 308.358 45.0528C309.365 45.0528 310.292 44.9722 311.138 44.811V47.6818ZM313.842 47.9236V27.1327H323.754V30.2453H317.287V35.8661H322.878V38.9787H317.287V44.811H323.754V47.9236H313.842ZM331.516 48.1653C330.69 48.1653 329.783 48.125 328.796 48.0445C327.809 47.9639 326.953 47.8531 326.228 47.712V44.7808C327.94 44.9621 329.38 45.0528 330.549 45.0528C331.959 45.0528 332.856 44.8311 333.238 44.3879C333.44 44.1865 333.571 43.9145 333.631 43.572C333.692 43.2094 333.722 42.7259 333.722 42.1215C333.722 41.2753 333.672 40.671 333.571 40.3083C333.47 39.9457 333.269 39.6838 332.966 39.5226C332.684 39.3413 332.181 39.1902 331.455 39.0693L328.464 38.5556C327.456 38.3944 326.761 37.8606 326.379 36.954C326.016 36.0474 325.835 34.7379 325.835 33.0255C325.835 31.4138 326.066 30.1647 326.53 29.2783C326.993 28.3717 327.648 27.7472 328.494 27.4047C329.34 27.0622 330.418 26.891 331.727 26.891C332.574 26.891 333.43 26.9514 334.296 27.0723C335.183 27.173 335.888 27.2939 336.411 27.4349V30.3058C335.364 30.1043 334.135 30.0036 332.725 30.0036C331.919 30.0036 331.294 30.0438 330.851 30.1244C330.408 30.205 330.075 30.346 329.854 30.5475C329.612 30.749 329.451 31.0209 329.37 31.3634C329.31 31.7059 329.28 32.2196 329.28 32.9046C329.28 33.6299 329.32 34.1537 329.401 34.476C329.481 34.7782 329.622 34.9998 329.824 35.1408C330.045 35.2819 330.408 35.3927 330.912 35.4732L333.722 35.9568C334.508 36.0776 335.142 36.3093 335.626 36.6518C336.129 36.9943 336.512 37.5684 336.774 38.3743C337.036 39.2003 337.167 40.2983 337.167 41.6682C337.167 43.4612 336.955 44.8311 336.532 45.778C336.109 46.7047 335.495 47.3393 334.689 47.6818C333.903 48.0042 332.846 48.1653 331.516 48.1653ZM345.626 47.9236V27.1327H349.101V47.9236H345.626ZM361.774 47.9236L356.153 35.0804H356.032V47.9236H352.708V27.1327H356.153L361.532 39.3413H361.653V27.1327H364.977V47.9236H361.774ZM377.833 47.6818C377.43 47.8229 376.896 47.9337 376.231 48.0142C375.587 48.115 374.972 48.1653 374.388 48.1653C372.514 48.1653 371.144 47.8732 370.278 47.289C369.412 46.6846 368.838 45.6672 368.556 44.2368C368.274 42.7863 368.132 40.5501 368.132 37.5282C368.132 34.5465 368.274 32.3304 368.556 30.8799C368.858 29.4294 369.442 28.4019 370.308 27.7976C371.175 27.1932 372.534 26.891 374.388 26.891C375.012 26.891 375.647 26.9413 376.292 27.0421C376.936 27.1227 377.43 27.2335 377.772 27.3745V30.2453C376.705 30.0841 375.798 30.0036 375.053 30.0036C373.904 30.0036 373.099 30.1547 372.635 30.4568C372.192 30.759 371.9 31.3936 371.759 32.3607C371.638 33.3277 371.577 35.0502 371.577 37.5282C371.577 40.0061 371.638 41.7286 371.759 42.6957C371.9 43.6627 372.192 44.2973 372.635 44.5995C373.099 44.9017 373.904 45.0528 375.053 45.0528C376.06 45.0528 376.987 44.9722 377.833 44.811V47.6818Z" fill="#B6361B"/>
</svg>
