<svg width="131" height="25" viewBox="0 0 131 25" fill="none" xmlns="http://www.w3.org/2000/svg">
<path d="M26.6391 4.21362C26.4411 4.0493 21.9004 0 13.8202 0H13.5175H13.2031C5.1229 0 0.570505 4.0493 0.372574 4.22535L0.0116432 4.55399C2.66312e-07 4.56573 0 4.57746 0 4.5892L0.023286 5.07042C0.0349289 5.23474 0.267788 9.07277 1.96766 13.439C4.26132 19.3075 8.13842 23.2746 13.1798 24.8944L13.4942 25C13.5058 25 13.5175 25 13.5175 25L13.8318 24.8944C18.8732 23.2629 22.7503 19.3075 25.044 13.439C26.7439 9.07277 26.9767 5.23474 26.9767 5.07042L27 4.5892C27 4.57746 27 4.56573 26.9884 4.55399L26.6391 4.21362ZM20.445 19.2254L20.4916 19.1315C20.9107 16.608 18.6287 13.5329 18.1397 12.9108C18.1281 12.8873 18.0931 12.8873 18.0699 12.8991C18.0582 12.9108 18.0466 12.9225 18.0582 12.9343C18.1979 16.2089 16.8473 17.6056 16.3001 18.0282C16.2768 18.0399 16.2536 18.0399 16.2303 18.0164C16.2186 18.0047 16.2186 17.9812 16.2303 17.9577C16.4864 17.5352 17.0103 16.4554 17.348 14.0728C17.7206 11.4789 16.6261 10.1174 16.1604 9.67136C16.1371 9.64789 16.1138 9.64789 16.0906 9.67136C16.0789 9.6831 16.0789 9.70657 16.0789 9.73005C16.3933 10.4225 16.1604 11.3146 16.0789 11.5493C16.0673 11.5728 16.044 11.5845 16.0207 11.5845C16.0207 11.5845 16.0091 11.5845 16.0091 11.5728C12.8072 9.22535 13.6339 4.9061 13.8202 4.10798C13.8202 4.08451 13.8085 4.06103 13.7853 4.0493C13.7736 4.0493 13.762 4.0493 13.7503 4.06103C13.2962 4.41315 11.5265 5.92723 11.5265 7.96948C11.5265 10.3169 12.1087 10.3169 12.1087 11.8427C12.1087 12.9577 11.4916 14.2488 11.1539 14.8709C11.1423 14.8944 11.1074 14.8944 11.0841 14.8826C11.0724 14.8709 11.0608 14.8474 11.0608 14.8357C11.7244 12.1831 9.23286 10.1878 8.70893 9.80047C8.68564 9.78873 8.66235 9.78873 8.63907 9.81221C8.62743 9.82394 8.62742 9.83568 8.62742 9.84742C9.50065 14.0845 7.8357 15.0469 7.09056 16.3028C6.53169 17.23 6.56662 18.6033 6.60155 19.1315C6.60155 19.1549 6.57827 19.1784 6.55498 19.1784C6.54334 19.1784 6.53169 19.1784 6.52005 19.1667C1.71151 13.5329 1.11772 5.50469 1.08279 5.03521C1.08279 5.02347 1.08279 5.01174 1.09444 5C1.39715 4.73005 5.82147 0.974178 13.4942 1.06807C21.1669 0.962441 25.5912 4.73005 25.8939 5C25.9056 5.01174 25.9056 5.02347 25.9056 5.03521C25.8939 5.51643 25.3001 13.5681 20.445 19.2254Z" fill="#B6361B"/>
<path d="M36.392 16.904C36.232 16.96 36.02 17.004 35.756 17.036C35.5 17.076 35.256 17.096 35.024 17.096C34.28 17.096 33.736 16.98 33.392 16.748C33.048 16.508 32.82 16.104 32.708 15.536C32.596 14.96 32.54 14.072 32.54 12.872C32.54 11.688 32.596 10.808 32.708 10.232C32.828 9.656 33.06 9.248 33.404 9.008C33.748 8.768 34.288 8.648 35.024 8.648C35.272 8.648 35.524 8.668 35.78 8.708C36.036 8.74 36.232 8.784 36.368 8.84V9.98C35.944 9.916 35.584 9.884 35.288 9.884C34.832 9.884 34.512 9.944 34.328 10.064C34.152 10.184 34.036 10.436 33.98 10.82C33.932 11.204 33.908 11.888 33.908 12.872C33.908 13.856 33.932 14.54 33.98 14.924C34.036 15.308 34.152 15.56 34.328 15.68C34.512 15.8 34.832 15.86 35.288 15.86C35.688 15.86 36.056 15.828 36.392 15.764V16.904ZM36.7458 17V8.744H40.6818V9.98H38.1138V12.212H40.3338V13.448H38.1138V15.764H40.6818V17H36.7458ZM44.7 17L42.468 11.9H42.42V17H41.1V8.744H42.468L44.604 13.592H44.652V8.744H45.972V17H44.7ZM47.765 17V10.016H46.109V8.744H50.777V10.016H49.133V17H47.765ZM54.3537 17L53.4657 13.988H52.2897V17H50.9217V8.744H53.5857C54.1617 8.744 54.5937 8.844 54.8817 9.044C55.1777 9.244 55.3737 9.528 55.4697 9.896C55.5737 10.264 55.6257 10.752 55.6257 11.36C55.6257 11.952 55.5657 12.444 55.4457 12.836C55.3337 13.228 55.1017 13.516 54.7497 13.7L55.7937 17H54.3537ZM53.2617 12.752C53.5657 12.752 53.7857 12.716 53.9217 12.644C54.0577 12.564 54.1457 12.432 54.1857 12.248C54.2337 12.056 54.2577 11.76 54.2577 11.36C54.2577 10.96 54.2337 10.668 54.1857 10.484C54.1457 10.3 54.0577 10.172 53.9217 10.1C53.7857 10.02 53.5657 9.98 53.2617 9.98H52.2897V12.752H53.2617ZM59.7806 17L59.3846 15.128H57.2726L56.8886 17H55.5086L57.3566 8.744H59.3366L61.1846 17H59.7806ZM58.3646 10.1H58.2926L57.5246 13.904H59.1206L58.3646 10.1ZM61.306 17V8.744H62.674V15.728H64.954V17H61.306ZM66.6277 17V8.744H70.3717V9.98H67.9957V12.404H70.1077V13.64H67.9957V17H66.6277ZM70.6541 17V8.744H72.0341V17H70.6541ZM76.1783 17L75.2903 13.988H74.1143V17H72.7463V8.744H75.4103C75.9863 8.744 76.4183 8.844 76.7063 9.044C77.0023 9.244 77.1983 9.528 77.2943 9.896C77.3983 10.264 77.4503 10.752 77.4503 11.36C77.4503 11.952 77.3903 12.444 77.2703 12.836C77.1583 13.228 76.9263 13.516 76.5743 13.7L77.6183 17H76.1783ZM75.0863 12.752C75.3903 12.752 75.6103 12.716 75.7463 12.644C75.8823 12.564 75.9703 12.432 76.0103 12.248C76.0583 12.056 76.0823 11.76 76.0823 11.36C76.0823 10.96 76.0583 10.668 76.0103 10.484C75.9703 10.3 75.8823 10.172 75.7463 10.1C75.6103 10.02 75.3903 9.98 75.0863 9.98H74.1143V12.752H75.0863ZM77.9091 17V8.744H81.8451V9.98H79.2771V12.212H81.4971V13.448H79.2771V15.764H81.8451V17H77.9091ZM85.7139 17.096C85.3859 17.096 85.0259 17.08 84.6339 17.048C84.2419 17.016 83.9019 16.972 83.6139 16.916V15.752C84.2939 15.824 84.8659 15.86 85.3299 15.86C85.8899 15.86 86.2459 15.772 86.3979 15.596C86.4779 15.516 86.5299 15.408 86.5539 15.272C86.5779 15.128 86.5899 14.936 86.5899 14.696C86.5899 14.36 86.5699 14.12 86.5299 13.976C86.4899 13.832 86.4099 13.728 86.2899 13.664C86.1779 13.592 85.9779 13.532 85.6899 13.484L84.5019 13.28C84.1019 13.216 83.8259 13.004 83.6739 12.644C83.5299 12.284 83.4579 11.764 83.4579 11.084C83.4579 10.444 83.5499 9.948 83.7339 9.596C83.9179 9.236 84.1779 8.988 84.5139 8.852C84.8499 8.716 85.2779 8.648 85.7979 8.648C86.1339 8.648 86.4739 8.672 86.8179 8.72C87.1699 8.76 87.4499 8.808 87.6579 8.864V10.004C87.2419 9.924 86.7539 9.884 86.1939 9.884C85.8739 9.884 85.6259 9.9 85.4499 9.932C85.2739 9.964 85.1419 10.02 85.0539 10.1C84.9579 10.18 84.8939 10.288 84.8619 10.424C84.8379 10.56 84.8259 10.764 84.8259 11.036C84.8259 11.324 84.8419 11.532 84.8739 11.66C84.9059 11.78 84.9619 11.868 85.0419 11.924C85.1299 11.98 85.2739 12.024 85.4739 12.056L86.5899 12.248C86.9019 12.296 87.1539 12.388 87.3459 12.524C87.5459 12.66 87.6979 12.888 87.8019 13.208C87.9059 13.536 87.9579 13.972 87.9579 14.516C87.9579 15.228 87.8739 15.772 87.7059 16.148C87.5379 16.516 87.2939 16.768 86.9739 16.904C86.6619 17.032 86.2419 17.096 85.7139 17.096ZM88.3585 17V8.744H92.2945V9.98H89.7265V12.212H91.9465V13.448H89.7265V15.764H92.2945V17H88.3585ZM96.1447 17L95.2567 13.988H94.0807V17H92.7127V8.744H95.3767C95.9527 8.744 96.3847 8.844 96.6727 9.044C96.9687 9.244 97.1647 9.528 97.2607 9.896C97.3647 10.264 97.4167 10.752 97.4167 11.36C97.4167 11.952 97.3567 12.444 97.2367 12.836C97.1247 13.228 96.8927 13.516 96.5407 13.7L97.5847 17H96.1447ZM95.0527 12.752C95.3567 12.752 95.5767 12.716 95.7127 12.644C95.8487 12.564 95.9367 12.432 95.9767 12.248C96.0247 12.056 96.0487 11.76 96.0487 11.36C96.0487 10.96 96.0247 10.668 95.9767 10.484C95.9367 10.3 95.8487 10.172 95.7127 10.1C95.5767 10.02 95.3567 9.98 95.0527 9.98H94.0807V12.752H95.0527ZM98.9689 17L97.2409 8.744H98.6449L99.9409 15.488H100.025L101.309 8.744H102.677L100.949 17H98.9689ZM102.816 17V8.744H104.196V17H102.816ZM108.592 16.904C108.432 16.96 108.22 17.004 107.956 17.036C107.7 17.076 107.456 17.096 107.224 17.096C106.48 17.096 105.936 16.98 105.592 16.748C105.248 16.508 105.02 16.104 104.908 15.536C104.796 14.96 104.74 14.072 104.74 12.872C104.74 11.688 104.796 10.808 104.908 10.232C105.028 9.656 105.26 9.248 105.604 9.008C105.948 8.768 106.488 8.648 107.224 8.648C107.472 8.648 107.724 8.668 107.98 8.708C108.236 8.74 108.432 8.784 108.568 8.84V9.98C108.144 9.916 107.784 9.884 107.488 9.884C107.032 9.884 106.712 9.944 106.528 10.064C106.352 10.184 106.236 10.436 106.18 10.82C106.132 11.204 106.108 11.888 106.108 12.872C106.108 13.856 106.132 14.54 106.18 14.924C106.236 15.308 106.352 15.56 106.528 15.68C106.712 15.8 107.032 15.86 107.488 15.86C107.888 15.86 108.256 15.828 108.592 15.764V16.904ZM108.946 17V8.744H112.882V9.98H110.314V12.212H112.534V13.448H110.314V15.764H112.882V17H108.946ZM115.244 17.096C114.916 17.096 114.556 17.08 114.164 17.048C113.772 17.016 113.432 16.972 113.144 16.916V15.752C113.824 15.824 114.396 15.86 114.86 15.86C115.42 15.86 115.776 15.772 115.928 15.596C116.008 15.516 116.06 15.408 116.084 15.272C116.108 15.128 116.12 14.936 116.12 14.696C116.12 14.36 116.1 14.12 116.06 13.976C116.02 13.832 115.94 13.728 115.82 13.664C115.708 13.592 115.508 13.532 115.22 13.484L114.032 13.28C113.632 13.216 113.356 13.004 113.204 12.644C113.06 12.284 112.988 11.764 112.988 11.084C112.988 10.444 113.08 9.948 113.264 9.596C113.448 9.236 113.708 8.988 114.044 8.852C114.38 8.716 114.808 8.648 115.328 8.648C115.664 8.648 116.004 8.672 116.348 8.72C116.7 8.76 116.98 8.808 117.188 8.864V10.004C116.772 9.924 116.284 9.884 115.724 9.884C115.404 9.884 115.156 9.9 114.98 9.932C114.804 9.964 114.672 10.02 114.584 10.1C114.488 10.18 114.424 10.288 114.392 10.424C114.368 10.56 114.356 10.764 114.356 11.036C114.356 11.324 114.372 11.532 114.404 11.66C114.436 11.78 114.492 11.868 114.572 11.924C114.66 11.98 114.804 12.024 115.004 12.056L116.12 12.248C116.432 12.296 116.684 12.388 116.876 12.524C117.076 12.66 117.228 12.888 117.332 13.208C117.436 13.536 117.488 13.972 117.488 14.516C117.488 15.228 117.404 15.772 117.236 16.148C117.068 16.516 116.824 16.768 116.504 16.904C116.192 17.032 115.772 17.096 115.244 17.096ZM119.407 17V8.744H120.787V17H119.407ZM125.1 17L122.868 11.9H122.82V17H121.5V8.744H122.868L125.004 13.592H125.052V8.744H126.372V17H125.1ZM130.757 16.904C130.597 16.96 130.385 17.004 130.121 17.036C129.865 17.076 129.621 17.096 129.389 17.096C128.645 17.096 128.101 16.98 127.757 16.748C127.413 16.508 127.185 16.104 127.073 15.536C126.961 14.96 126.905 14.072 126.905 12.872C126.905 11.688 126.961 10.808 127.073 10.232C127.193 9.656 127.425 9.248 127.769 9.008C128.113 8.768 128.653 8.648 129.389 8.648C129.637 8.648 129.889 8.668 130.145 8.708C130.401 8.74 130.597 8.784 130.733 8.84V9.98C130.309 9.916 129.949 9.884 129.653 9.884C129.197 9.884 128.877 9.944 128.693 10.064C128.517 10.184 128.401 10.436 128.345 10.82C128.297 11.204 128.273 11.888 128.273 12.872C128.273 13.856 128.297 14.54 128.345 14.924C128.401 15.308 128.517 15.56 128.693 15.68C128.877 15.8 129.197 15.86 129.653 15.86C130.053 15.86 130.421 15.828 130.757 15.764V16.904Z" fill="#B6361B"/>
</svg>
