<svg width="29" height="29" viewBox="0 0 29 29" fill="none" xmlns="http://www.w3.org/2000/svg">
<circle cx="14.5" cy="14.5" r="14.5" fill="#B6361B"/>
<path d="M12.8998 21.3036C15.9115 21.0146 21.0239 12.8855 20.2031 10.4735C19.849 9.433 18.7935 8.51618 17.6682 7.81207C16.9357 7.35369 15.9911 7.62847 15.5219 8.35417L14.8815 9.34485C14.3255 10.205 14.7229 11.3089 15.3604 12.1106C16.2427 13.2199 15.9224 14.4717 15.2283 15.3513C14.4331 16.3589 13.5717 16.9118 12.4014 16.4086C11.4568 16.0024 10.2936 15.9906 9.66475 16.8042L9.06506 17.5801C8.49562 18.3169 8.6201 19.3731 9.39732 19.886C10.4629 20.5891 11.9247 21.3972 12.8998 21.3036Z" stroke="white"/>
</svg>
